<?xml version="1.0" encoding="UTF-8" standalone="no"?>
<svg width="200" height="200" viewBox="0 0 200 200" fill="none" xmlns="http://www.w3.org/2000/svg">
  <!-- 定义图案，使其可以无缝平铺 -->
  <defs>
    <pattern id="traditional-pattern" x="0" y="0" width="200" height="200" patternUnits="userSpaceOnUse">
      <!-- 背景 -->
      <rect width="200" height="200" fill="#F9F9FF" />
      
      <!-- 中心装饰花纹 -->
      <g opacity="0.1">
        <!-- 中心花纹 -->
        <circle cx="100" cy="100" r="30" stroke="#0047AB" stroke-width="1.5" fill="none" />
        <circle cx="100" cy="100" r="15" stroke="#0047AB" stroke-width="1.5" fill="none" />
        
        <!-- 中心十字花纹 -->
        <path d="M100 60 L100 140" stroke="#0047AB" stroke-width="1.5" />
        <path d="M60 100 L140 100" stroke="#0047AB" stroke-width="1.5" />
        
        <!-- 对角线花纹 -->
        <path d="M70 70 L130 130" stroke="#0047AB" stroke-width="1.5" />
        <path d="M130 70 L70 130" stroke="#0047AB" stroke-width="1.5" />
        
        <!-- 四角花纹 -->
        <path d="M30 30 Q50 30 50 50 Q50 30 70 30" stroke="#0047AB" stroke-width="1.5" fill="none" />
        <path d="M130 30 Q150 30 150 50 Q150 30 170 30" stroke="#0047AB" stroke-width="1.5" fill="none" />
        <path d="M30 170 Q50 170 50 150 Q50 170 70 170" stroke="#0047AB" stroke-width="1.5" fill="none" />
        <path d="M130 170 Q150 170 150 150 Q150 170 170 170" stroke="#0047AB" stroke-width="1.5" fill="none" />
      </g>
      
      <!-- 云纹图案 -->
      <g opacity="0.15">
        <!-- 顶部云纹 -->
        <path d="M50 40 Q60 30 70 40 Q80 30 90 40 Q100 30 110 40" stroke="#0047AB" stroke-width="1.5" fill="none" />
        <!-- 底部云纹 -->
        <path d="M50 160 Q60 170 70 160 Q80 170 90 160 Q100 170 110 160" stroke="#0047AB" stroke-width="1.5" fill="none" />
        <!-- 左侧云纹 -->
        <path d="M40 50 Q30 60 40 70 Q30 80 40 90 Q30 100 40 110" stroke="#0047AB" stroke-width="1.5" fill="none" />
        <!-- 右侧云纹 -->
        <path d="M160 50 Q170 60 160 70 Q170 80 160 90 Q170 100 160 110" stroke="#0047AB" stroke-width="1.5" fill="none" />
      </g>
      
      <!-- 回字纹图案 -->
      <g opacity="0.12">
        <!-- 左上角回字纹 -->
        <path d="M20 20 L40 20 L40 40 L20 40 L20 20" stroke="#0047AB" stroke-width="1" fill="none" />
        <path d="M25 25 L35 25 L35 35 L25 35 L25 25" stroke="#0047AB" stroke-width="1" fill="none" />
        
        <!-- 右上角回字纹 -->
        <path d="M160 20 L180 20 L180 40 L160 40 L160 20" stroke="#0047AB" stroke-width="1" fill="none" />
        <path d="M165 25 L175 25 L175 35 L165 35 L165 25" stroke="#0047AB" stroke-width="1" fill="none" />
        
        <!-- 左下角回字纹 -->
        <path d="M20 160 L40 160 L40 180 L20 180 L20 160" stroke="#0047AB" stroke-width="1" fill="none" />
        <path d="M25 165 L35 165 L35 175 L25 175 L25 165" stroke="#0047AB" stroke-width="1" fill="none" />
        
        <!-- 右下角回字纹 -->
        <path d="M160 160 L180 160 L180 180 L160 180 L160 160" stroke="#0047AB" stroke-width="1" fill="none" />
        <path d="M165 165 L175 165 L175 175 L165 175 L165 165" stroke="#0047AB" stroke-width="1" fill="none" />
      </g>
      
      <!-- 菱形网格 -->
      <g opacity="0.07">
        <path d="M0 50 L50 0 L100 50 L150 0 L200 50 L150 100 L200 150 L150 200 L100 150 L50 200 L0 150 L50 100 Z" stroke="#0047AB" stroke-width="0.5" fill="none" />
      </g>
      
      <!-- 中医相关的元素点缀 -->
      <g opacity="0.1">
        <!-- 简化太极图案 -->
        <circle cx="100" cy="185" r="8" stroke="#0047AB" stroke-width="1" fill="none" />
        <path d="M96 185 Q100 177 104 185" stroke="#0047AB" stroke-width="1" fill="none" />
        <path d="M96 185 Q100 193 104 185" stroke="#0047AB" stroke-width="1" fill="none" />
        
        <!-- 简化的针灸图案 -->
        <line x1="185" y1="92" x2="185" y2="108" stroke="#0047AB" stroke-width="1" />
        <line x1="182" y1="95" x2="188" y2="95" stroke="#0047AB" stroke-width="1" />
        <line x1="182" y1="100" x2="188" y2="100" stroke="#0047AB" stroke-width="1" />
        <line x1="182" y1="105" x2="188" y2="105" stroke="#0047AB" stroke-width="1" />
        
        <!-- 简化的中药图案 -->
        <path d="M10 95 Q15 90 20 95 Q25 100 30 95" stroke="#0047AB" stroke-width="1" fill="none" />
        <path d="M10 100 L30 100" stroke="#0047AB" stroke-width="1" />
        <path d="M10 105 Q15 110 20 105 Q25 100 30 105" stroke="#0047AB" stroke-width="1" fill="none" />
      </g>
    </pattern>
  </defs>
  
  <!-- 应用图案 -->
  <rect width="200" height="200" fill="url(#traditional-pattern)" />
</svg> 